<svg width="19" height="19" viewBox="0 0 19 19" fill="none" xmlns="http://www.w3.org/2000/svg">
<path d="M9.5 19C10.8117 19 11.875 17.9367 11.875 16.625H7.125C7.125 17.9367 8.18832 19 9.5 19Z" fill="#A0AEC0"/>
<path fill-rule="evenodd" clip-rule="evenodd" d="M9.5 2.27792L8.55333 2.46911C6.38343 2.90734 4.75003 4.82675 4.75003 7.125C4.75003 7.87054 4.59047 9.73423 4.20512 11.5688C4.01383 12.4796 3.75789 13.4278 3.41774 14.25H15.5823C15.2421 13.4278 14.9862 12.4795 14.7949 11.5688C14.4096 9.73422 14.25 7.87053 14.25 7.125C14.25 4.82673 12.6166 2.90732 10.4467 2.4691L9.5 2.27792ZM16.8854 14.25C17.1505 14.7813 17.458 15.2012 17.8125 15.4375H1.1875C1.542 15.2012 1.84947 14.7813 2.11458 14.25C3.18158 12.1118 3.56253 8.169 3.56253 7.125C3.56253 4.25047 5.60524 1.85303 8.31825 1.30511C8.31445 1.26642 8.3125 1.22719 8.3125 1.1875C8.3125 0.531662 8.84416 0 9.5 0C10.1558 0 10.6875 0.531662 10.6875 1.1875C10.6875 1.22719 10.6856 1.26642 10.6818 1.3051C13.3948 1.853 15.4375 4.25045 15.4375 7.125C15.4375 8.169 15.8184 12.1118 16.8854 14.25Z" fill="#A0AEC0"/>
</svg>
