<svg width="19" height="19" viewBox="0 0 19 19" fill="none" xmlns="http://www.w3.org/2000/svg">
<path fill-rule="evenodd" clip-rule="evenodd" d="M4.15625 0C4.48417 0 4.75 0.265831 4.75 0.59375V1.1875H14.25V0.59375C14.25 0.265831 14.5158 0 14.8438 0C15.1717 0 15.4375 0.265831 15.4375 0.59375V1.1875H16.625C17.9367 1.1875 19 2.25082 19 3.5625V16.625C19 17.9367 17.9367 19 16.625 19H2.375C1.06332 19 0 17.9367 0 16.625V3.5625C0 2.25082 1.06332 1.1875 2.375 1.1875H3.5625V0.59375C3.5625 0.265831 3.82833 0 4.15625 0ZM2.375 2.375C1.71916 2.375 1.1875 2.90666 1.1875 3.5625V4.75H17.8125V3.5625C17.8125 2.90666 17.2808 2.375 16.625 2.375H2.375ZM17.8125 5.9375H1.1875V16.625C1.1875 17.2808 1.71916 17.8125 2.375 17.8125H16.625C17.2808 17.8125 17.8125 17.2808 17.8125 16.625V5.9375Z" fill="#A0AEC0"/>
</svg>
