<svg width="19" height="19" viewBox="0 0 19 19" fill="none" xmlns="http://www.w3.org/2000/svg">
<path fill-rule="evenodd" clip-rule="evenodd" d="M3.17999 14.1241C3.42983 14.3746 3.55494 14.7235 3.52121 15.0758C3.44564 15.8651 3.27158 16.6866 3.04804 17.4497C4.70447 17.0669 5.71612 16.6228 6.17597 16.3897C6.43699 16.2575 6.73766 16.2262 7.02029 16.302C7.80148 16.5115 8.63403 16.625 9.5 16.625C14.2448 16.625 17.8125 13.291 17.8125 9.5C17.8125 5.70896 14.2448 2.375 9.5 2.375C4.75523 2.375 1.1875 5.70896 1.1875 9.5C1.1875 11.2434 1.92055 12.8611 3.17999 14.1241ZM2.59456 18.7612C2.58656 18.7628 2.57856 18.7644 2.57053 18.766C2.46149 18.7875 2.35032 18.8086 2.23703 18.8294C2.07812 18.8585 1.91501 18.8868 1.74767 18.9142C1.51134 18.9529 1.33043 18.7057 1.42379 18.4851C1.48478 18.341 1.5449 18.19 1.60348 18.0335C1.64069 17.934 1.67728 17.8323 1.71307 17.7287C1.71461 17.7242 1.71615 17.7197 1.71769 17.7153C2.01189 16.8606 2.25146 15.8782 2.33912 14.9626C0.882385 13.5017 0 11.591 0 9.5C0 4.90913 4.25329 1.1875 9.5 1.1875C14.7467 1.1875 19 4.90913 19 9.5C19 14.0909 14.7467 17.8125 9.5 17.8125C8.5301 17.8125 7.59415 17.6853 6.71274 17.449C6.09587 17.7616 4.76703 18.3306 2.59456 18.7612Z" fill="#A0AEC0"/>
</svg>
