<svg width="16" height="16" viewBox="0 0 16 16" fill="none" xmlns="http://www.w3.org/2000/svg">
<path fill-rule="evenodd" clip-rule="evenodd" d="M12.3536 3.64645C12.5488 3.84171 12.5488 4.15829 12.3536 4.35355L5.35355 11.3536C5.25979 11.4473 5.13261 11.5 5 11.5C4.86739 11.5 4.74021 11.4473 4.64645 11.3536L1.14645 7.85355C0.951184 7.65829 0.951184 7.34171 1.14645 7.14645C1.34171 6.95118 1.65829 6.95118 1.85355 7.14645L5 10.2929L11.6464 3.64645C11.8417 3.45118 12.1583 3.45118 12.3536 3.64645Z" fill="#718096"/>
<path d="M6.25 8.04289L5.35355 7.14645C5.15829 6.95118 4.84171 6.95118 4.64645 7.14645C4.45118 7.34171 4.45118 7.65829 4.64645 7.85355L5.54289 8.75L6.25 8.04289Z" fill="#718096"/>
<path d="M7.25 10.4571L8.14645 11.3536C8.24021 11.4473 8.36739 11.5 8.5 11.5C8.63261 11.5 8.75979 11.4473 8.85355 11.3536L15.8536 4.35355C16.0488 4.15829 16.0488 3.84171 15.8536 3.64645C15.6583 3.45118 15.3417 3.45118 15.1464 3.64645L8.5 10.2929L7.95711 9.75L7.25 10.4571Z" fill="#718096"/>
</svg>
