<svg width="15" height="15" viewBox="0 0 15 15" fill="none" xmlns="http://www.w3.org/2000/svg">
<path fill-rule="evenodd" clip-rule="evenodd" d="M0.46875 9.28127C0.727633 9.28127 0.9375 9.49114 0.9375 9.75002V12.0938C0.9375 12.6115 1.35723 13.0313 1.875 13.0313H13.125C13.6428 13.0313 14.0625 12.6115 14.0625 12.0938V9.75002C14.0625 9.49114 14.2724 9.28127 14.5312 9.28127C14.7901 9.28127 15 9.49114 15 9.75002V12.0938C15 13.1293 14.1605 13.9688 13.125 13.9688H1.875C0.839467 13.9688 0 13.1293 0 12.0938V9.75002C0 9.49114 0.209867 9.28127 0.46875 9.28127Z" fill="white"/>
<path fill-rule="evenodd" clip-rule="evenodd" d="M7.16854 11.1127C7.3516 11.2958 7.6484 11.2958 7.83146 11.1127L10.644 8.30021C10.827 8.11715 10.827 7.82035 10.644 7.63729C10.4609 7.45424 10.1641 7.45424 9.98104 7.63729L7.96875 9.64959V1.40625C7.96875 1.14737 7.75888 0.9375 7.5 0.9375C7.24112 0.9375 7.03125 1.14737 7.03125 1.40625V9.64959L5.01896 7.63729C4.8359 7.45424 4.5391 7.45424 4.35604 7.63729C4.17299 7.82035 4.17299 8.11715 4.35604 8.30021L7.16854 11.1127Z" fill="white"/>
</svg>
