<svg width="19" height="19" viewBox="0 0 19 19" fill="none" xmlns="http://www.w3.org/2000/svg">
<path fill-rule="evenodd" clip-rule="evenodd" d="M2.375 16.0312V8.31247H3.5625V16.0312C3.5625 16.3591 3.82833 16.625 4.15625 16.625H14.8438C15.1717 16.625 15.4375 16.3591 15.4375 16.0312V8.31247H16.625V16.0312C16.625 17.015 15.8275 17.8125 14.8438 17.8125H4.15625C3.17249 17.8125 2.375 17.015 2.375 16.0312Z" fill="#1E3869"/>
<path fill-rule="evenodd" clip-rule="evenodd" d="M15.4375 2.96872V7.12497L13.0625 4.74997V2.96872C13.0625 2.6408 13.3283 2.37497 13.6562 2.37497H14.8438C15.1717 2.37497 15.4375 2.6408 15.4375 2.96872Z" fill="#1E3869"/>
<path fill-rule="evenodd" clip-rule="evenodd" d="M8.66031 1.78122C9.12406 1.31747 9.87594 1.31747 10.3397 1.78122L18.2323 9.67388C18.4642 9.90575 18.4642 10.2817 18.2323 10.5136C18.0005 10.7454 17.6245 10.7454 17.3927 10.5136L9.5 2.62091L1.60734 10.5136C1.37547 10.7454 0.999529 10.7454 0.767655 10.5136C0.535782 10.2817 0.535782 9.90575 0.767655 9.67388L8.66031 1.78122Z" fill="#1E3869"/>
</svg>
